<?xml version="1.0" encoding="iso-8859-1"?>
<!-- Generator: Adobe Illustrator 19.0.0, SVG Export Plug-In . SVG Version: 6.00 Build 0)  -->
<svg version="1.1" id="Layer_1" xmlns="http://www.w3.org/2000/svg" xmlns:xlink="http://www.w3.org/1999/xlink" x="0px" y="0px"
	 viewBox="0 0 356.67 356.67" style="enable-background:new 0 0 356.67 356.67;" xml:space="preserve">
<g>
	<title>book-shelf-library-knowledge-case</title>
	<rect x="234.064" y="278.648" style="fill:#9CE7F7;" width="11.146" height="44.584"/>
	<rect x="256.356" y="278.648" style="fill:#9CE7F7;" width="11.146" height="44.584"/>
	<rect x="189.481" y="278.648" style="fill:#9CE7F7;" width="11.146" height="44.584"/>
	<rect x="167.189" y="278.648" style="fill:#9CE7F7;" width="11.146" height="44.584"/>
	<rect x="33.438" y="167.189" style="fill:#9CE7F7;" width="11.146" height="55.73"/>
	<rect x="278.648" y="278.648" style="fill:#9CE7F7;" width="11.146" height="44.584"/>
	<path style="fill:#F78628;" d="M33.438,267.502h261.929c3.078,0,5.573,2.495,5.573,5.573v50.157h22.292v-66.876H33.438V267.502z"/>
	<rect x="144.897" y="278.648" style="fill:#9CE7F7;" width="11.146" height="44.584"/>
	<rect x="55.73" y="167.189" style="fill:#9CE7F7;" width="11.146" height="55.73"/>
	<rect x="33.438" y="278.648" style="fill:#9CE7F7;" width="11.146" height="44.584"/>
	<rect x="55.73" y="278.648" style="fill:#9CE7F7;" width="11.146" height="44.584"/>
	<rect x="78.021" y="278.648" style="fill:#9CE7F7;" width="11.146" height="44.584"/>
	<rect x="122.605" y="278.648" style="fill:#9CE7F7;" width="11.146" height="44.584"/>
	<rect x="100.313" y="278.648" style="fill:#9CE7F7;" width="11.146" height="44.584"/>
	<rect x="78.021" y="167.189" style="fill:#9CE7F7;" width="11.146" height="55.73"/>
	<rect x="300.94" y="167.189" style="fill:#9CE7F7;" width="22.292" height="55.73"/>
	<rect x="33.438" y="61.303" style="fill:#9CE7F7;" width="11.146" height="50.157"/>
	<path style="fill:#F78628;" d="M33.438,156.043h105.886c2.396-0.006,4.528,1.52,5.294,3.79l11.425,34.274v-32.49
		c0-3.078,2.495-5.573,5.573-5.573h161.616v-11.146H33.438V156.043z"/>
	<rect x="78.021" y="61.303" style="fill:#9CE7F7;" width="11.146" height="50.157"/>
	<rect x="55.73" y="61.303" style="fill:#9CE7F7;" width="11.146" height="50.157"/>
	<rect x="144.897" y="61.303" style="fill:#9CE7F7;" width="11.146" height="50.157"/>
	<rect x="100.313" y="167.189" style="fill:#9CE7F7;" width="11.146" height="55.73"/>
	<rect x="122.605" y="61.303" style="fill:#9CE7F7;" width="11.146" height="50.157"/>
	<rect x="100.313" y="61.303" style="fill:#9CE7F7;" width="11.146" height="50.157"/>
	<polygon style="fill:#9CE7F7;" points="124.779,167.189 143.337,222.918 153.869,222.918 135.311,167.189 	"/>
	<rect x="267.502" y="167.189" style="fill:#9CE7F7;" width="22.292" height="55.73"/>
	<rect x="167.189" y="167.189" style="fill:#9CE7F7;" width="22.292" height="55.73"/>
	<polygon style="fill:#F78628;" points="122.605,222.918 131.578,222.918 122.605,195.945 	"/>
	<rect x="234.064" y="167.189" style="fill:#9CE7F7;" width="22.292" height="55.73"/>
	<rect x="200.627" y="167.189" style="fill:#9CE7F7;" width="22.292" height="55.73"/>
	<rect x="167.189" y="61.303" style="fill:#9CE7F7;" width="11.146" height="50.157"/>
	<rect x="211.772" y="278.648" style="fill:#9CE7F7;" width="11.146" height="44.584"/>
	<rect x="189.481" y="61.303" style="fill:#9CE7F7;" width="11.146" height="50.157"/>
	<polygon style="fill:#F78628;" points="211.772,111.459 237.297,111.459 211.772,85.991 	"/>
	<path style="fill:#9CE7F7;" d="M247.551,72.448L271.403,96.3l0,0l12.651,12.651l8.861-8.861l-36.559-36.447L247.551,72.448z"/>
	<path style="fill:#9CE7F7;" d="M235.402,76.127l-12.483-12.483l-8.861,8.917l36.726,36.614l8.805-8.805l-23.908-23.797
		C235.681,76.572,235.513,76.238,235.402,76.127z"/>
	<polygon style="fill:#F78628;" points="264.214,111.459 270.734,111.459 267.502,108.227 	"/>
	<path style="fill:#F78628;" d="M33.438,50.157H206.2c3.078,0,5.573,2.495,5.573,5.573v3.344l7.189-7.245
		c1.043-1.064,2.467-1.666,3.957-1.672l0,0c1.481-0.009,2.905,0.573,3.957,1.616l12.818,12.818L252.4,51.773
		c1.052-1.043,2.475-1.625,3.957-1.616l0,0c1.481-0.009,2.905,0.573,3.957,1.616l44.584,44.584c2.161,2.174,2.161,5.684,0,7.858
		l-7.245,7.245h25.58V33.438H33.438V50.157z"/>
	<path style="fill:#9CE7F7;" d="M328.805,11.146H27.865c-9.234,0-16.719,7.485-16.719,16.719v300.94
		c0,9.234,7.485,16.719,16.719,16.719h300.94c9.234,0,16.719-7.485,16.719-16.719V27.865
		C345.524,18.631,338.038,11.146,328.805,11.146z M334.378,328.805c0,3.078-2.495,5.573-5.573,5.573H27.865
		c-3.078,0-5.573-2.495-5.573-5.573v-78.021c0-3.078,2.495-5.573,5.573-5.573h300.94c3.078,0,5.573,2.495,5.573,5.573V328.805z
		 M334.378,161.616v66.876c0,3.078-2.495,5.573-5.573,5.573H27.865c-3.078,0-5.573-2.495-5.573-5.573v-89.167
		c0-3.078,2.495-5.573,5.573-5.573h300.94c3.078,0,5.573,2.495,5.573,5.573V161.616z M334.378,117.032
		c0,3.078-2.495,5.573-5.573,5.573H27.865c-3.078,0-5.573-2.495-5.573-5.573V27.865c0-3.078,2.495-5.573,5.573-5.573h300.94
		c3.078,0,5.573,2.495,5.573,5.573V117.032z"/>
	<path style="fill:#414A52;" d="M328.805,0H27.865C12.475,0,0,12.476,0,27.865v300.94c0,15.389,12.475,27.865,27.865,27.865h300.94
		c15.389,0,27.865-12.475,27.865-27.865V27.865C356.669,12.476,344.194,0,328.805,0z M345.524,328.805
		c0,9.234-7.485,16.719-16.719,16.719H27.865c-9.234,0-16.719-7.485-16.719-16.719V27.865c0-9.234,7.485-16.719,16.719-16.719
		h300.94c9.234,0,16.719,7.485,16.719,16.719V328.805z"/>
	<path style="fill:#414A52;" d="M328.805,22.292H27.865c-3.078,0-5.573,2.495-5.573,5.573v89.167c0,3.078,2.495,5.573,5.573,5.573
		h300.94c3.078,0,5.573-2.495,5.573-5.573V27.865C334.378,24.787,331.883,22.292,328.805,22.292z M33.438,61.303h11.146v50.157
		H33.438V61.303z M55.73,61.303h11.146v50.157H55.73V61.303z M78.021,61.303h11.146v50.157H78.021V61.303z M100.313,61.303h11.146
		v50.157h-11.146V61.303z M122.605,61.303h11.146v50.157h-11.146C122.605,111.46,122.605,61.303,122.605,61.303z M144.897,61.303
		h11.146v50.157h-11.146V61.303z M167.189,61.303h11.146v50.157h-11.146V61.303z M189.481,111.459V61.303h11.146v50.157h-11.146
		V111.459z M211.772,85.991l25.524,25.468h-25.524V85.991z M270.734,111.459h-6.52l3.232-3.232L270.734,111.459z M284.221,109.174
		l-12.651-12.65l0,0l-24.019-24.075l8.805-8.861l36.67,36.67L284.221,109.174z M235.458,76.127c0,0,0,0.279,0,0.39l23.908,23.797
		l-8.582,8.861l-36.726-36.726l8.861-8.917L235.458,76.127z M323.232,111.459h-25.58l7.189-7.189c2.161-2.174,2.161-5.684,0-7.858
		l-44.584-44.584c-1.029-1.05-2.431-1.651-3.901-1.672l0,0c-1.489,0.006-2.914,0.608-3.957,1.672l-12.762,12.818l-12.818-12.818
		c-1.029-1.05-2.431-1.651-3.901-1.672l0,0c-1.489,0.006-2.914,0.608-3.957,1.672l-7.189,7.245V55.73
		c0-3.078-2.495-5.573-5.573-5.573H33.438V33.438h289.794V111.459z"/>
	<path style="fill:#414A52;" d="M328.805,133.751H27.865c-3.078,0-5.573,2.495-5.573,5.573v89.167c0,3.078,2.495,5.573,5.573,5.573
		h300.94c3.078,0,5.573-2.495,5.573-5.573v-89.167C334.378,136.246,331.883,133.751,328.805,133.751z M323.232,144.897v11.146
		H161.616c-3.078,0-5.573,2.495-5.573,5.573v32.546l-11.425-34.274c-0.747-2.292-2.884-3.844-5.294-3.845H33.438v-11.146H323.232z
		 M122.605,195.945l8.972,26.973h-8.972C122.605,222.918,122.605,195.945,122.605,195.945z M33.438,167.189h11.146v55.73H33.438
		V167.189z M55.73,167.189h11.146v55.73H55.73V167.189z M78.021,167.189h11.146v55.73H78.021V167.189z M100.313,222.918v-55.73
		h11.146v55.73H100.313z M143.337,222.918l-18.558-55.73h10.533l18.558,55.73H143.337z M167.189,167.189h22.292v55.73h-22.292
		V167.189z M200.627,167.189h22.292v55.73h-22.292L200.627,167.189L200.627,167.189z M234.064,167.189h22.292v55.73h-22.292V167.189
		z M267.502,167.189h22.292v55.73h-22.292V167.189z M323.232,222.918H300.94v-55.73h22.292V222.918z"/>
	<path style="fill:#414A52;" d="M328.805,245.21H27.865c-3.078,0-5.573,2.495-5.573,5.573v78.021c0,3.078,2.495,5.573,5.573,5.573
		h300.94c3.078,0,5.573-2.495,5.573-5.573v-78.021C334.378,247.705,331.883,245.21,328.805,245.21z M33.438,278.648h11.146v44.584
		H33.438V278.648z M55.73,278.648h11.146v44.584H55.73V278.648z M78.021,278.648h11.146v44.584H78.021V278.648z M100.313,278.648
		h11.146v44.584h-11.146V278.648z M122.605,278.648h11.146v44.584h-11.146C122.605,323.232,122.605,278.648,122.605,278.648z
		 M144.897,278.648h11.146v44.584h-11.146V278.648z M167.189,278.648h11.146v44.584h-11.146V278.648z M189.481,278.648h11.146
		v44.584h-11.146V278.648z M211.772,278.648h11.146v44.584h-11.146V278.648z M234.064,278.648h11.146v44.584h-11.146V278.648z
		 M256.356,278.648h11.146v44.584h-11.146V278.648z M278.648,323.232v-44.584h11.146v44.584H278.648z M323.232,323.232H300.94
		v-50.157c0-3.078-2.495-5.573-5.573-5.573H33.438v-11.146h289.794V323.232z"/>
</g>
<g>
</g>
<g>
</g>
<g>
</g>
<g>
</g>
<g>
</g>
<g>
</g>
<g>
</g>
<g>
</g>
<g>
</g>
<g>
</g>
<g>
</g>
<g>
</g>
<g>
</g>
<g>
</g>
<g>
</g>
</svg>
